<svg xmlns="http://www.w3.org/2000/svg" xmlns:xlink="http://www.w3.org/1999/xlink">

  <!-- Editor toggle buttons -->

  <symbol id="icon-crop" viewBox="0 0 44 44">
    <path fill="none" d="M0,0h48v48H0V0z"/>
    <path d="M34,30h4V14c0-2.21-1.79-4-4-4H18v4h16V30z M14,34V2h-4v8H2v4h8v20c0,2.21,1.79,4,4,4h20v8h4v-8h8v-4H14z"/>
  </symbol>

  <symbol id="icon-color" viewBox="0 0 48 43">
    <path fill="none" d="M0,0h48v48H0V0z"/>
    <path d="M33.12,17.88L15.24,0l-2.83,2.83l4.76,4.76L6.88,17.88c-1.17,1.17-1.17,3.07,0,4.24l11,11C18.46,33.71,19.23,34,20,34 s1.54-0.29,2.12-0.88l11-11C34.29,20.95,34.29,19.05,33.12,17.88z M10.41,20L20,10.42L29.59,20H10.41z M38,23c0,0-4,4.33-4,7 c0,2.21,1.79,4,4,4s4-1.79,4-4C42,27.33,38,23,38,23z"/>
    <rect y="40" width="48" height="3"/>
  </symbol>

  <symbol id="icon-contrast" viewBox="0 0 32 32">
    <path d="M16,4c6.6,0,12,5.4,12,12s-5.4,12-12,12S4,22.6,4,16C4.1,9.4,9.4,4,16,4 M16,0C7.2,0,0,7.1,0,16 c0,8.8,7.1,16,16,16s16-7.1,16-16C32,7.2,24.9,0,16,0L16,0z"/>
    <path d="M16,24.3c4.7,0,8.5-3.8,8.5-8.5S20.7,7.3,16,7.3"/>
  </symbol>
</svg>
